<svg width="243" height="43" viewBox="0 0 243 43" fill="none" xmlns="http://www.w3.org/2000/svg">
<path d="M181.913 26.1053C186.213 25.9004 186.013 26.6175 187.413 26.3102C187.613 26.3102 187.813 26.5151 187.813 26.7199C188.013 26.4126 187.313 27.437 187.413 27.2321C186.813 27.1297 186.213 27.1297 185.613 27.437C185.413 27.5395 185.413 27.7443 185.213 28.0517C187.113 28.359 191.613 28.0517 192.313 29.076C192.213 29.8956 191.813 29.7931 190.013 29.998C190.013 30.2029 189.813 30.1004 191.113 30.4077C191.413 30.8175 191.213 30.8175 188.713 30.8175C187.513 30.8175 187.213 30.1004 185.913 30.2029C185.213 30.3053 184.613 29.7931 183.913 29.998L181.913 26.1053ZM187.113 21.4956C187.413 21.4956 187.613 21.3931 187.813 21.8029C187.813 21.9053 187.713 22.0078 187.613 22.0078L187.113 21.4956ZM182.413 14.7346C185.113 15.0419 187.713 14.837 190.413 15.0419C191.313 15.1443 191.213 15.1443 191.113 15.9639C193.013 16.8858 197.513 16.3736 200.213 16.9882C199.213 17.0907 198.613 17.398 198.113 17.2956C197.313 17.0907 196.613 17.398 196.113 18.1151C194.513 18.1151 193.913 17.7053 192.413 17.9102C192.213 17.9102 192.013 17.9102 191.813 17.8078C190.313 16.9882 187.313 17.5004 186.313 17.1931C185.013 16.7834 183.713 17.0907 182.413 16.9882V14.7346ZM22.6128 32.1492C22.7128 32.2517 23.0128 31.8419 23.0128 31.7395C23.0128 31.5346 22.8128 31.2273 22.6128 31.1248C22.5128 31.1248 22.6128 31.1248 22.1128 31.1248C21.9128 30.9199 21.5128 30.2029 20.6128 30.2029C18.2128 30.3053 15.8128 29.6907 13.4128 30.1004C12.4128 30.2029 12.2128 29.4858 10.4128 30.4077C8.21279 29.3834 5.81279 29.5882 3.21279 29.6907C2.91279 29.6907 2.81279 29.6907 2.11279 28.9736C2.91279 28.4614 3.91279 28.9736 4.61279 28.6663C5.21279 27.8468 4.31279 26.7199 5.61279 26.5151C6.01279 26.4126 5.51279 26.5151 8.21279 26.3102C8.71279 25.5931 8.51279 24.2614 7.71279 24.159C5.61279 23.8517 7.81279 24.3639 0.512789 23.4419C0.0127891 23.3395 -0.187211 22.52 0.212789 22.4175C1.11279 22.1102 1.41279 22.2126 3.31279 22.2126C3.21279 21.8029 2.81279 21.9053 2.61279 21.7004C2.41279 21.4956 2.41279 21.2907 2.61279 20.9834C7.21279 20.4712 5.71279 20.2663 8.91279 20.2663C10.4128 20.2663 11.9128 19.7541 13.4128 19.4468C16.4128 18.7297 15.8128 19.7541 17.0128 19.3443C18.2128 18.9346 18.7128 20.1639 20.0128 19.1395L20.1128 19.2419C19.8128 19.1395 19.7128 18.8321 19.5128 18.7297C19.0128 18.6273 17.6128 19.037 15.8128 18.4224C14.2128 17.8078 13.1128 18.4224 12.6128 17.9102C13.1128 17.5004 13.7128 17.8078 14.2128 17.7053C14.7128 17.6029 15.1128 17.5004 15.6128 17.5004C15.9128 15.8614 14.0128 16.2712 13.6128 16.0663C12.0128 15.3492 11.1128 15.759 8.71279 15.8614C8.01279 15.1443 8.51279 15.3492 6.21279 15.2468C5.41279 15.2468 5.81279 14.3248 6.11279 14.2224C8.11279 13.5053 7.31279 14.5297 8.21279 13.198C9.31279 12.1736 19.4128 13.7102 21.5128 12.3785C22.0128 12.0712 22.3128 12.2761 27.2128 12.4809C29.2128 12.5834 29.2128 13.0956 30.9128 12.9931C35.3128 12.6858 34.6128 12.9931 35.1128 12.0712C37.7128 10.8419 39.0128 11.8663 42.5128 10.8419C42.9128 10.7395 43.3128 10.7395 43.7128 10.637C43.7128 10.2273 43.5128 10.2273 43.4128 10.2273C39.6128 9.91996 31.6128 10.7395 30.1128 10.1248C30.2128 9.91996 30.2128 9.71508 30.3128 9.71508C31.0128 9.5102 31.8128 9.20289 32.5128 9.30533C34.4128 9.61264 34.4128 9.40776 42.6128 9.20289C45.2128 9.20289 44.2128 8.38338 46.7128 8.69069C50.6128 9.10045 63.7128 8.28094 67.0128 9.20289C67.5128 9.30533 68.1128 9.40776 68.6128 9.30533C69.2128 9.20289 69.8128 9.40776 70.6128 9.5102C72.4128 8.89557 73.1128 8.58825 73.9128 8.99801C74.3128 9.20289 74.7128 8.69069 75.7128 8.89557C79.8128 9.40776 81.0128 8.79313 81.6128 8.89557C82.9128 9.30533 84.1128 8.89557 84.3128 8.99801C85.4128 9.71508 88.5128 8.38338 92.1128 9.5102C101.813 6.84679 81.7128 7.97362 36.9128 8.28094C35.5128 8.28094 31.6128 8.69069 29.7128 8.58825C27.8128 8.48581 20.7128 8.48581 18.2128 8.99801C18.0128 9.20289 17.8128 9.30533 17.7128 9.40776C15.8128 8.69069 12.9128 9.40776 10.9128 8.99801C11.0128 8.89557 11.1128 8.69069 11.1128 8.69069C12.8128 8.79313 14.5128 8.1785 16.2128 8.1785C17.2128 8.1785 17.1128 7.46142 19.4128 7.56386C21.8128 7.76874 21.8128 7.25655 26.4128 7.35899C29.1128 7.46142 28.5128 7.56386 30.5128 6.12972C31.7128 6.12972 31.4128 5.92484 32.1128 6.94923C36.1128 7.15411 92.5128 6.43704 92.5128 6.43704C94.0128 6.43704 93.5128 5.8224 95.9128 5.8224C100.813 5.8224 110.313 5.8224 117.913 5.8224C118.613 5.8224 119.313 5.51508 119.913 5.61752C120.613 5.71996 121.313 5.61752 121.913 5.51508C123.413 5.31021 123.413 5.8224 125.013 5.8224C137.413 5.8224 137.013 6.02728 137.113 5.10533C136.513 4.79801 135.913 5.00289 135.313 5.00289C133.113 4.79801 134.813 5.61752 131.613 4.90045C131.513 4.90045 131.413 4.69557 131.213 4.69557C131.313 4.59313 131.313 4.4907 131.413 4.4907C137.313 4.08094 137.713 4.79801 141.313 4.79801C145.413 4.79801 145.413 4.69557 145.913 5.51508C147.913 5.71996 147.013 5.71996 148.013 6.02728C150.213 6.74435 149.913 6.43703 152.713 6.53947C154.713 6.53947 154.413 6.84679 155.713 7.05167C156.313 7.15411 156.913 7.05167 157.513 7.15411C160.313 7.97362 161.113 6.94923 166.013 7.6663C166.713 7.25655 167.513 6.94923 168.313 7.56386C168.213 7.35899 168.413 7.76874 168.413 7.97362C168.613 9.61264 173.513 7.6663 175.313 8.79313C176.413 9.5102 177.613 8.79313 179.513 8.38338C180.413 8.28094 182.213 8.48581 181.813 9.5102C180.913 10.0224 180.413 9.5102 174.813 9.71508C175.113 10.2273 174.713 9.81752 182.013 10.1248C189.913 10.4322 190.013 10.0224 192.113 10.4322C192.613 10.5346 191.013 10.4322 198.713 10.4322C208.113 10.5346 210.513 12.2761 219.813 11.4565C220.813 10.1248 220.913 10.3297 222.513 10.3297C223.513 11.2517 223.513 11.2517 224.513 11.3541C225.713 11.559 229.413 11.3541 229.413 11.3541C231.213 11.1492 230.413 11.6614 237.413 11.559C242.913 11.4565 241.913 11.559 242.713 11.7639C242.713 12.0712 242.713 12.3785 242.513 12.3785C241.213 12.5834 234.713 12.6858 233.113 12.8907C232.913 12.8907 232.813 13.198 232.713 13.3004C232.813 14.2224 233.513 14.2224 234.313 14.6322C221.813 14.837 225.613 14.6322 225.313 15.6565C224.313 16.1687 223.013 15.759 223.313 17.6029C223.613 17.7053 223.913 17.9102 224.213 18.0126C224.513 18.7297 223.413 18.6273 223.113 19.2419C223.813 19.4468 224.413 19.7541 224.913 20.3687C225.313 20.8809 226.113 20.8809 226.213 22.0078C226.413 21.598 226.613 21.2907 226.713 20.9834C227.113 22.1102 226.713 21.4956 228.413 22.6224C228.713 22.8273 228.913 23.1346 228.913 23.6468C229.013 23.5443 229.313 23.5443 226.913 23.9541C226.613 24.159 226.213 24.3638 226.213 25.0809C227.213 25.798 226.713 25.798 229.913 25.6956C230.113 25.6956 230.213 25.5931 230.513 25.3882C230.413 24.876 230.313 24.4663 230.213 24.159C230.213 24.159 234.913 24.2614 235.513 24.4663C235.713 24.4663 235.913 24.7736 235.813 24.9785C235.613 25.4907 235.613 25.3882 233.313 25.6956C232.413 25.798 232.513 25.6956 232.513 26.9248C232.013 27.437 231.413 26.7199 230.813 27.1297C230.913 27.3346 231.013 27.5395 231.113 27.6419C232.213 28.359 231.913 27.7443 232.213 28.6663C230.213 29.2809 228.713 28.0517 228.613 29.2809C228.613 30.2029 228.613 30.2029 227.913 30.6126C226.213 29.1785 226.813 29.3834 225.413 29.5882C225.013 30.7151 225.013 31.1248 224.013 31.0224C216.413 30.1004 219.013 29.4858 215.513 30.2029C215.313 30.6126 215.413 30.8175 215.713 31.0224V30.9199L22.6128 32.1492ZM15.5128 35.0175C15.6128 34.9151 15.7128 34.9151 14.3128 35.0175V35.1199C13.4128 33.5834 6.81279 35.5297 4.11279 33.7882C4.31279 33.3785 4.31279 33.276 4.51279 33.1736C10.4128 32.7638 11.2128 33.5834 13.1128 32.8663C13.1128 32.559 13.1128 32.3541 13.0128 32.0468C13.7128 31.637 14.5128 31.9443 15.2128 32.0468L15.5128 35.0175ZM185.313 31.0224C186.513 31.0224 185.613 30.9199 189.213 31.5346C189.613 31.8419 189.713 32.3541 189.813 32.7638C189.713 33.276 189.413 33.4809 189.113 33.5834C185.913 33.8907 185.513 33.5834 187.513 34.0956C187.613 34.5053 187.513 34.6077 187.313 34.6077C185.713 34.6077 184.113 34.5053 182.613 34.0956C181.113 34.7102 182.513 34.5053 175.213 34.7102C175.413 35.1199 175.713 35.0175 175.913 35.1199C178.513 35.7346 178.413 35.837 178.513 35.9395L185.313 31.0224ZM65.3128 11.4565C65.4128 11.559 65.5128 11.6614 65.6128 11.6614C66.2128 11.6614 66.1128 11.2517 66.3128 11.1492C66.1128 11.4565 65.7128 11.1492 65.3128 11.4565ZM138.413 5.51508V5.31021C138.913 6.02728 140.113 5.71996 140.613 5.61752C139.813 5.51508 139.113 5.41265 138.413 5.51508ZM15.1128 23.3395C14.8128 23.237 14.6128 22.8273 14.2128 23.237C14.6128 23.4419 14.9128 23.3395 15.1128 23.3395C15.0128 24.6712 17.8128 24.5687 17.8128 25.2858C17.8128 25.798 18.0128 26.2078 18.4128 26.2078C19.8128 26.4126 21.1128 26.6175 22.5128 26.3102C22.6128 26.3102 22.7128 26.1053 22.8128 26.0029C21.9128 25.0809 22.0128 25.3882 22.4128 24.9785C22.9128 24.5687 22.9128 24.4663 22.6128 23.6468C17.9128 22.9297 16.7128 22.7248 15.1128 23.3395ZM213.513 31.7395V31.8419C213.113 31.3297 214.013 31.0224 213.913 30.5102C213.213 30.2029 212.613 29.7931 212.013 29.4858C211.013 29.3834 209.513 29.8956 207.913 29.2809C207.613 29.1785 205.213 29.1785 203.413 29.1785C203.313 29.1785 203.213 29.2809 203.113 29.3834C203.213 29.6907 203.213 29.998 203.313 30.4077C201.413 31.0224 201.013 29.5882 197.013 29.5882C194.513 29.5882 191.913 29.7931 189.413 29.1785C187.613 29.1785 185.813 29.1785 184.113 29.3834C186.013 29.5882 187.513 29.3834 188.013 29.6907C189.013 30.2029 189.713 30.1004 194.313 30.2029C196.313 30.2029 194.913 30.7151 198.013 30.6126C200.513 30.5102 200.213 31.5346 202.413 31.637C202.813 31.637 205.013 31.9443 205.213 31.2273C205.513 29.8956 206.313 29.998 207.313 30.3053C206.913 31.1248 207.013 30.9199 206.613 31.2273C206.513 31.3297 206.313 31.3297 206.313 31.637C206.713 31.637 207.113 31.7395 207.613 31.7395C210.713 31.7395 211.913 33.1736 213.513 31.7395ZM99.0128 11.559C99.1128 11.2517 98.9128 11.0468 98.7128 11.0468C98.2128 10.9443 97.6128 10.8419 97.1128 10.9443C96.2128 11.1492 92.8128 10.637 90.5128 10.9443C87.3128 11.3541 86.4128 10.9443 84.5128 11.4565C88.0128 12.1736 88.6128 11.559 90.2128 12.1736C91.5128 12.5834 93.4128 12.1736 96.1128 12.2761C97.2128 12.2761 98.1128 12.0712 99.0128 11.559ZM198.313 15.8614C206.813 16.1687 197.713 15.759 210.113 15.9639C213.113 16.0663 211.913 15.6565 213.713 15.4517C213.913 15.4517 213.913 15.4517 214.213 15.0419C213.913 15.0419 213.613 14.9395 213.413 14.9395C201.913 15.0419 202.013 14.7346 198.313 15.8614ZM217.213 23.6468C217.913 24.7736 218.913 24.159 219.813 24.7736C220.513 25.798 220.013 25.5931 222.113 25.9004C222.613 25.3882 223.013 25.0809 223.513 24.6712C223.513 24.4663 223.313 23.6468 222.813 23.5443C220.913 23.237 219.113 23.3395 217.213 23.6468ZM216.813 16.4761C216.513 16.4761 216.213 16.9882 216.313 17.398C216.413 18.0126 216.413 17.9102 221.413 18.0126C221.513 18.0126 221.613 17.9102 221.813 17.8078C221.413 16.2712 222.013 16.4761 216.813 16.4761ZM214.113 17.398C213.913 17.0907 213.713 16.7834 213.413 16.7834C212.013 16.6809 210.713 16.6809 209.413 16.9882C209.113 17.0907 209.013 17.2956 208.913 17.7053C208.813 18.2175 213.713 17.8078 213.713 17.8078C213.813 17.8078 214.013 17.6029 214.113 17.398ZM50.2128 11.9687C48.0128 11.7639 45.9128 12.2761 43.8128 12.2761C35.7128 12.2761 40.0128 13.5053 49.7128 12.2761C49.9128 12.2761 50.0128 12.0712 50.2128 11.9687ZM180.013 32.9687C181.613 33.276 181.713 32.9687 182.413 33.1736C183.613 33.4809 184.713 33.276 185.813 33.0712C185.913 33.0712 185.913 32.9687 186.013 32.8663L180.013 32.9687ZM76.6128 11.4565C75.2128 11.0468 75.0128 11.4565 73.2128 11.2517C70.6128 11.0468 70.5128 11.4565 69.1128 11.0468C68.5128 10.9443 67.9128 10.9443 67.3128 11.1492C67.3128 11.1492 67.2128 11.2517 67.2128 11.3541C67.5128 11.8663 67.2128 11.7639 75.9128 11.6614C76.1128 11.6614 76.3128 11.559 76.6128 11.4565ZM35.8128 30.4077C35.1128 30.3053 34.4128 30.1004 34.0128 31.0224C33.8128 31.4321 33.5128 31.1248 33.5128 31.9443C33.5128 32.2516 35.1128 32.2517 35.9128 32.1492C35.9128 30.8175 35.9128 31.3297 35.8128 30.4077ZM40.7128 16.8858C43.1128 17.0907 45.6128 17.1931 48.0128 16.7834C45.5128 16.5785 43.1128 16.5785 40.7128 16.8858ZM21.8128 17.398C20.6128 16.7834 19.9128 16.1687 18.8128 16.5785C18.5128 16.6809 18.3128 16.9882 18.3128 17.2956C18.3128 17.7053 18.4128 17.7053 21.2128 17.6029C21.4128 17.6029 21.5128 17.5004 21.8128 17.398ZM21.8128 21.598C21.4128 21.3931 22.1128 21.3931 18.0128 21.1882C16.4128 21.0858 17.0128 21.9053 17.0128 21.9053C18.0128 22.0078 20.5128 21.9053 21.8128 21.598ZM191.313 24.0565C191.513 25.4907 192.813 24.876 193.913 24.6712C194.113 24.6712 193.913 24.159 193.813 24.0565C192.913 23.9541 192.113 23.9541 191.313 24.0565ZM22.8128 17.5004C23.8128 17.398 25.0128 17.6029 24.3128 16.1687C23.5128 16.1687 24.0128 15.9639 22.8128 17.5004ZM64.4128 11.4565C59.4128 11.3541 59.4128 11.6614 63.7128 11.7639C63.8128 11.7639 64.0128 11.6614 64.4128 11.4565ZM34.4128 29.4858C35.5128 29.6907 35.5128 29.6907 36.1128 29.3834C35.7128 28.8712 35.2128 28.7687 34.6128 28.9736C34.5128 28.9736 34.5128 29.2809 34.4128 29.4858ZM194.813 15.8614C194.013 15.8614 193.313 15.5541 192.613 15.8614C193.313 15.8614 194.013 15.8614 194.813 15.8614ZM107.913 7.76874C108.013 7.87118 107.813 7.87118 109.713 7.87118C109.713 7.76874 110.013 7.76874 107.913 7.76874ZM160.713 8.79313C161.313 8.99801 162.013 8.89557 162.613 8.89557C162.513 8.79313 162.713 8.79313 160.713 8.79313ZM31.0128 19.037C31.7128 19.2419 32.3128 19.3443 33.0128 19.1395C33.1128 19.1395 33.1128 18.9346 33.2128 18.8321C33.3128 18.6273 32.3128 18.4224 31.3128 18.7297C31.2128 18.7297 31.1128 18.8321 31.0128 19.037ZM38.7128 29.4858C38.6128 28.8712 38.5128 28.7687 38.1128 28.6663C37.9128 28.6663 37.7128 28.6663 37.6128 28.9736C37.4128 29.3834 38.2128 29.8956 38.7128 29.4858ZM227.513 26.9248C229.313 27.0273 229.013 27.1297 229.213 26.8224C228.613 26.6175 228.013 26.5151 227.513 26.9248ZM145.513 7.76874C146.013 7.87118 146.513 8.38338 146.913 7.76874C146.413 7.76874 145.913 7.76874 145.513 7.76874ZM169.213 10.0224C169.713 9.91996 170.113 10.2273 170.613 9.81752C170.213 9.81752 169.813 9.71508 169.213 10.0224ZM112.513 8.28094C112.113 7.56386 111.813 8.28094 111.913 8.38338C112.313 8.48581 112.313 8.38338 112.513 8.28094ZM203.513 24.7736C203.313 24.5687 203.013 24.4663 202.713 24.7736C203.013 24.7736 203.313 24.7736 203.513 24.7736ZM42.7128 14.837C42.5128 14.5297 42.2128 14.4273 41.8128 14.7346C42.2128 14.837 42.5128 14.837 42.7128 14.837ZM12.9128 21.598C12.9128 21.4956 12.8128 21.1882 12.4128 21.1882C11.9128 21.0858 12.0128 21.598 12.3128 21.598C12.5128 21.598 12.7128 21.598 12.9128 21.598ZM207.713 23.7492C208.013 23.8517 208.313 23.9541 208.613 23.7492C208.313 23.5443 208.013 23.5443 207.713 23.7492ZM51.9128 12.0712C51.4128 11.9687 51.5128 11.9687 51.3128 11.9687C51.5128 12.1736 51.6128 12.2761 51.9128 12.0712ZM198.913 24.159C198.713 24.159 198.813 24.159 198.913 24.159C198.813 24.159 198.713 24.159 198.913 24.159ZM29.8128 14.9395C29.8128 15.0419 29.7128 15.0419 29.7128 15.1443C29.6128 16.0663 30.1128 15.5541 29.8128 14.9395ZM189.113 31.5346C188.613 31.4321 188.813 31.4321 188.613 31.5346C188.813 31.5346 189.013 31.5346 189.113 31.5346ZM190.713 31.5346C190.513 31.5346 190.613 31.5346 190.713 31.5346C190.613 31.5346 190.513 31.5346 190.713 31.5346ZM106.713 7.87118C106.513 7.87118 106.513 7.87118 106.713 7.87118V7.87118ZM45.7128 10.5346C45.5128 10.4322 45.6128 10.4322 45.6128 10.5346H45.7128ZM56.7128 11.559C56.6128 11.559 56.6128 11.559 56.7128 11.559V11.559ZM170.913 11.559C171.113 11.559 171.113 11.559 170.913 11.559V11.559ZM27.5128 17.398V17.2956C27.3128 17.2956 27.3128 17.398 27.4128 17.5004C27.4128 17.5004 27.4128 17.398 27.5128 17.398ZM13.9128 21.4956C13.7128 21.598 13.7128 21.598 13.9128 21.598V21.4956ZM41.1128 23.0321C40.9128 23.0321 40.9128 23.1346 41.0128 23.237C41.0128 23.237 41.1128 23.237 41.2128 23.237C41.2128 23.1346 41.2128 23.1346 41.1128 23.0321ZM42.6128 23.0321V23.1346C42.8128 23.237 43.0128 23.0321 42.7128 22.9297C42.7128 23.0321 42.7128 23.0321 42.6128 23.0321ZM215.113 23.7492C215.313 23.6468 215.313 23.7492 215.113 23.7492V23.7492ZM197.413 24.2614C197.413 24.2614 197.413 24.159 197.313 24.159C197.113 24.159 197.113 24.2614 197.213 24.2614C197.313 24.2614 197.413 24.2614 197.413 24.2614ZM200.413 24.7736C200.213 24.6712 200.213 24.6712 200.213 24.7736H200.413ZM215.813 24.6712C216.013 24.7736 216.013 24.7736 216.013 24.6712H215.813ZM222.713 29.5882C222.713 29.4858 222.713 29.3834 222.513 29.3834L222.413 29.4858C222.513 29.4858 222.613 29.4858 222.713 29.5882ZM225.613 21.9053C225.513 22.1102 225.513 22.0078 225.713 22.0078L225.613 21.9053ZM30.6128 15.1443C30.5128 15.3492 30.5128 15.2468 30.6128 15.2468V15.1443Z" fill="#ECB942"/>
<path d="M48.9128 31.637C49.2128 31.0224 49.3128 31.0224 56.0128 31.0224C56.9128 31.0224 59.3128 31.1248 59.3128 31.1248C61.9128 31.9444 65.3128 31.3297 66.8128 31.8419C66.7128 32.4566 66.1128 32.0468 65.9128 32.559C66.1128 32.6614 66.2128 32.7639 66.4128 32.7639C68.8128 32.6614 69.5128 32.3541 70.0128 32.9688C69.6128 33.3785 69.1128 33.2761 68.6128 33.2761C66.8128 33.0712 64.9128 33.4809 63.1128 33.2761C61.0128 32.9688 60.2128 33.8907 57.2128 33.8907C54.9128 33.8907 54.1128 33.8907 53.0128 34.6078C52.8128 34.9151 52.7128 35.6322 52.1128 35.5297C49.6128 35.12 47.1128 35.9395 46.6128 35.6322C46.4128 35.0175 46.8128 34.5053 47.0128 33.8907C47.3128 33.5834 47.7128 33.1736 48.1128 32.8663C48.4128 32.559 48.6128 31.9444 48.9128 31.637C49.0128 31.9444 48.9128 32.2517 49.2128 32.4566C49.5128 32.4566 49.8128 32.6614 50.1128 32.4566C49.7128 32.1492 49.3128 31.8419 48.9128 31.637ZM51.5128 32.4566C53.1128 32.3541 53.5128 32.9688 55.4128 32.1492C55.5128 32.1492 55.5128 31.9444 55.5128 31.7395C51.2128 31.637 51.8128 31.7395 51.5128 32.4566Z" fill="#ECB942"/>
<path d="M155.413 30.8175C157.613 30.4078 157.513 31.0224 158.413 30.92C159.613 30.7151 161.713 31.4322 162.213 31.3297C162.813 31.1248 163.413 31.637 164.013 31.4322C164.613 31.2273 165.713 31.8419 166.613 31.9443C167.213 31.9443 167.813 32.2517 168.413 32.4565C168.513 32.559 168.613 32.7638 168.713 33.0712C166.913 34.4029 164.813 32.7638 161.813 33.1736C157.213 33.7882 142.913 32.6614 140.913 32.1492C140.913 31.9443 140.913 31.7395 141.013 31.5346C142.113 31.2273 145.813 31.1248 148.813 31.637C152.013 32.2517 152.913 32.1492 154.013 31.4322C153.913 31.2273 154.113 31.8419 154.513 31.9443C156.213 32.0468 155.313 31.7395 155.913 32.1492C155.913 32.1492 156.013 32.1492 156.013 32.0468C155.613 31.7395 155.713 31.9443 155.413 30.8175Z" fill="#ECB942"/>
<path d="M34.9128 5.72058C35.3128 5.41312 35.8128 5.51561 36.3128 5.51561C40.3128 5.72058 55.7128 4.49073 64.7128 4.38824C65.1128 4.38824 65.5128 4.38824 65.9128 4.69571C65.8128 4.7982 65.8128 4.79819 65.7128 4.90068C58.6128 6.33551 58.1128 5.00317 56.3128 5.82307C34.2128 6.64297 35.4128 6.64297 34.9128 5.72058Z" fill="#ECB942"/>
<path d="M86.6128 4.59349C86.5128 4.90095 86.4128 5.20841 86.3128 5.20841C86.0128 5.3109 85.6128 5.51587 85.3128 5.41338C83.5128 5.00344 81.7128 5.41338 80.0128 5.3109C78.3128 5.20841 76.6128 5.3109 74.9128 5.3109C73.7128 5.3109 72.8128 4.79846 70.2128 5.3109C70.0128 5.3109 69.1128 5.20841 69.1128 5.00344C69.1128 3.46614 70.2128 3.87608 81.0128 3.97857C84.2128 4.08106 85.1128 3.7736 86.6128 4.59349Z" fill="#ECB942"/>
<path d="M117.013 28.9736C119.013 29.1785 121.113 29.5882 123.113 30.2029C123.313 30.2029 123.413 30.5102 123.613 30.6126C123.713 30.5102 123.913 30.5102 122.113 30.8175C122.713 31.7395 123.513 31.5346 124.213 31.8419C124.913 32.1492 125.613 32.1492 126.313 32.2516C126.413 32.7638 126.213 32.9687 126.013 33.1736C125.413 34.5053 127.213 35.0175 120.213 32.7638C119.613 32.559 119.013 32.2517 118.413 32.0468C118.213 31.0224 118.413 31.3297 117.613 30.8175C117.613 30.5102 117.313 30.6126 119.313 30.4078C118.713 29.5882 118.113 29.6907 117.113 29.2809C117.113 29.2809 117.113 28.7687 117.013 28.9736Z" fill="#ECB942"/>
<path d="M228.213 7.87116C227.413 8.38336 223.413 8.69067 223.413 8.69067C223.113 8.99799 222.913 9.20287 222.713 9.40775C222.313 9.40775 222.113 8.89555 221.613 8.69067C218.013 8.58824 217.313 8.89555 215.113 7.87116C215.113 7.35897 215.213 7.25653 215.513 7.25653C215.913 7.25653 225.313 7.25653 225.313 7.25653C227.613 7.25653 228.013 7.76872 228.213 7.87116Z" fill="#ECB942"/>
<path d="M112.913 29.8956C111.913 29.998 110.913 30.1004 109.813 30.2029C109.913 31.2273 112.213 30.6126 113.013 31.4321C111.813 32.0468 107.013 31.7395 105.313 31.2273C103.813 30.8175 103.913 31.4321 103.213 30.5102C102.413 29.4858 105.813 29.4858 107.013 29.3834C109.013 29.3834 111.013 29.2809 112.913 29.8956ZM105.913 30.3053C106.313 30.8175 106.813 30.6126 107.213 30.4077C106.813 29.998 106.413 29.8956 105.913 30.3053Z" fill="#ECB942"/>
<path d="M232.013 19.7541C231.613 19.4468 231.213 19.037 230.813 18.9346C230.213 18.8321 229.913 19.8565 229.313 19.6517C229.113 19.5492 229.113 19.5492 229.113 18.8321C228.313 18.7297 227.613 18.7297 227.013 19.3443C225.913 18.8321 225.413 18.8321 225.813 18.1151C229.513 17.8078 234.113 18.0126 235.113 18.1151C235.213 18.3199 235.313 18.4224 235.313 18.6273C235.413 19.1395 234.013 18.9346 234.913 20.1638C234.713 19.959 235.113 20.3687 234.113 20.8809C233.313 20.7785 232.413 20.5736 231.613 20.4712C231.913 20.0614 232.213 19.2419 232.013 19.7541Z" fill="#ECB942"/>
<path d="M111.013 5.51559C110.213 5.10565 110.213 5.10565 110.013 4.49073C111.013 4.38824 125.013 4.28576 127.113 4.59322C124.313 5.41311 125.813 5.10565 123.613 5.00316C117.213 4.79819 115.613 5.20814 112.913 5.00316C112.213 5.10565 111.613 5.20814 111.013 5.51559Z" fill="#ECB942"/>
<path d="M34.1128 30.7156C33.8128 29.6907 32.7128 29.3832 42.2128 29.8957C42.4128 30.2032 42.2128 30.4081 42.0128 30.4081C40.6128 30.7156 35.3128 31.0231 34.1128 30.7156Z" fill="#ECB942"/>
<path d="M91.8128 32.1494C93.9128 31.432 94.2128 32.4568 94.7128 32.1494C95.9128 31.5344 98.0128 32.0469 100.513 32.4568C100.613 32.4568 100.613 32.6618 100.713 32.8668C100.413 33.1743 93.8128 32.9693 92.0128 32.4568C92.0128 32.5593 91.9128 32.3544 91.8128 32.1494Z" fill="#ECB942"/>
<path d="M33.4128 34.7108C33.9128 34.6083 34.3128 34.5058 34.8128 34.4033C34.8128 34.4033 35.6128 32.661 36.1128 34.1983C36.8128 34.4033 37.5128 34.3008 38.1128 34.1983C39.7128 33.8909 43.0128 33.7884 43.9128 34.1983C40.4128 34.9157 36.9128 35.3257 33.4128 34.7108Z" fill="#ECB942"/>
<path d="M132.513 0.802795C135.513 1.62308 138.513 1.62308 123.213 1.62308C123.613 1.21294 123.913 1.41801 124.213 1.41801C131.413 1.31547 129.713 1.62308 132.513 0.802795Z" fill="#ECB942"/>
<path d="M129.713 32.0474C129.613 33.0722 129.213 32.8673 126.313 32.2523C123.513 31.7399 123.313 31.5349 123.013 31.125C123.313 30.5101 123.313 31.0225 127.613 31.33C128.313 31.4324 129.013 31.6374 129.713 32.0474Z" fill="#ECB942"/>
<path d="M87.6128 5.20826C88.1128 4.90078 88.6128 5.10576 89.2128 5.00327C89.6128 4.79829 90.2128 4.49082 90.6128 4.18335C95.2128 4.49082 95.2128 4.38833 95.1128 4.90078C95.1128 5.00327 94.7128 5.20826 94.6128 5.20826C91.9128 5.00327 91.9128 5.92569 90.0128 5.61822C89.3128 5.41324 88.5128 5.41324 87.6128 5.20826Z" fill="#ECB942"/>
<path d="M91.0128 32.4571C90.4128 33.2774 90.0128 32.3546 88.6128 32.5596C88.1128 32.6622 87.5128 32.8673 87.0128 32.7647C86.0128 32.5596 85.0128 32.6622 84.0128 32.3546C82.6128 31.8419 87.1128 31.7393 90.9128 32.0469C90.9128 32.252 90.9128 32.3546 91.0128 32.4571Z" fill="#ECB942"/>
<path d="M120.113 33.9933C122.813 33.4808 123.213 33.5833 124.313 34.0958C124.313 34.3007 124.313 34.6082 124.213 34.8132C124.013 35.5306 123.113 35.2231 123.013 35.1207C122.213 34.3007 121.313 34.3007 120.113 33.9933Z" fill="#ECB942"/>
<path d="M116.013 1.62263C116.513 0.187214 117.013 1.21251 121.713 1.41757C119.613 1.72515 117.313 1.82768 116.013 1.62263Z" fill="#ECB942"/>
<path d="M174.713 7.87181C174.113 8.48703 173.513 7.46166 172.713 7.87181C172.313 8.07689 171.813 7.76928 171.313 7.97435C171.313 7.97435 171.013 7.5642 171.313 7.46166C172.113 7.25659 174.713 6.84644 174.713 7.87181Z" fill="#ECB942"/>
<path d="M56.1128 37.5785C56.7128 36.759 58.9128 37.7834 60.8128 36.8614C61.0128 36.759 61.1128 37.4761 60.5128 37.6809C59.7128 37.8858 58.9128 37.4761 57.0128 37.8858C56.8128 37.8858 56.4128 37.8858 56.1128 37.5785Z" fill="#ECB942"/>
<path d="M178.913 7.66673C179.513 7.0515 181.013 7.15403 181.813 7.46165C181.913 7.46165 182.113 7.76927 182.213 7.97434C181.713 8.28196 181.213 8.07688 180.813 8.17942C180.413 8.28196 180.013 7.8718 179.713 7.76927C179.413 7.56419 179.113 7.56419 178.913 7.66673Z" fill="#ECB942"/>
<path d="M26.1128 35.5302C25.5128 36.0426 23.9128 35.6327 23.0128 35.1202C22.9128 35.1202 22.7128 34.7102 23.0128 34.6078C23.7128 34.4028 24.5128 35.0177 25.2128 34.7102C25.5128 34.9152 26.0128 34.9152 26.1128 35.5302Z" fill="#ECB942"/>
<path d="M142.713 1.62283C144.313 -0.426836 146.013 1.31538 145.413 1.52034C144.813 1.82779 145.313 1.72531 142.713 1.62283Z" fill="#ECB942"/>
<path d="M198.913 34.4035C198.313 34.7111 197.813 34.4035 197.213 33.9934C198.413 33.5833 198.513 33.5833 198.913 34.4035Z" fill="#ECB942"/>
<path d="M69.3128 34.8132C68.2128 35.6331 68.3128 35.7355 67.8128 35.0181C67.8128 34.7107 67.9128 34.4032 67.9128 33.9933C67.9128 33.6858 68.2128 33.5833 68.3128 33.6858C68.7128 33.9933 69.0128 34.4032 69.3128 34.8132Z" fill="#ECB942"/>
<path d="M109.613 37.9884C110.313 37.6809 110.013 37.4759 111.413 38.8082C110.713 39.0132 110.113 39.0132 109.513 38.8082C109.413 38.8082 109.313 38.6033 109.213 38.5008C109.213 38.5008 109.013 38.7058 109.613 37.9884Z" fill="#ECB942"/>
<path d="M195.913 33.9934C195.813 34.6086 195.813 34.6086 195.513 34.7111C195.013 34.7111 194.613 34.4035 194.413 33.8908C194.913 33.7883 195.413 33.5832 195.913 33.9934Z" fill="#ECB942"/>
<path d="M37.6128 32.2515C35.1128 32.3539 35.4128 32.4563 35.3128 32.0467C35.2128 31.8419 35.8128 31.9443 37.6128 32.0467C37.6128 32.0467 37.6128 32.1491 37.6128 32.2515Z" fill="#ECB942"/>
<path d="M168.513 7.56418C169.413 7.0515 169.513 7.0515 170.113 7.76926C169.213 8.48701 168.313 7.25657 168.513 7.56418Z" fill="#ECB942"/>
<path d="M204.713 7.4616C205.313 7.05144 206.313 7.35906 205.913 7.56414C205.713 7.66668 205.513 7.9743 205.213 7.9743C205.013 7.9743 204.713 7.87176 204.713 7.4616Z" fill="#ECB942"/>
<path d="M17.9128 35.2226C18.3128 34.8125 18.8128 35.0175 19.2128 35.2226C19.3128 36.4531 18.7128 36.0429 17.9128 35.2226Z" fill="#ECB942"/>
<path d="M98.3128 30.6122C96.2128 30.6122 96.6128 30.6122 96.4128 30.5099C96.6128 30.3054 96.2128 30.3054 98.3128 30.5099V30.6122Z" fill="#ECB942"/>
<path d="M55.9128 30.2034C55.1128 30.7161 54.9128 31.0237 54.5128 29.9983C55.7128 29.1779 55.8128 30.511 55.9128 30.2034Z" fill="#ECB942"/>
<path d="M67.5128 36.4519C67.8128 36.0419 68.2128 36.0419 68.5128 36.1444C68.6128 36.1444 68.6128 36.3494 68.7128 36.4519C68.8128 36.6568 68.0128 36.6568 67.8128 36.6568C67.7128 36.6568 67.6128 36.4519 67.5128 36.4519Z" fill="#ECB942"/>
<path d="M28.3128 10.0227C27.8128 10.0227 27.1128 10.2276 27.3128 9.7152C27.5128 9.30526 28.1128 9.40775 28.3128 10.0227Z" fill="#ECB942"/>
<path d="M46.1128 30.1005C45.9128 30.613 45.1128 30.7155 45.1128 30.408C45.1128 30.3055 45.1128 30.203 45.2128 30.203C45.5128 29.8955 45.5128 29.8955 46.1128 30.1005Z" fill="#ECB942"/>
<path d="M111.613 37.6812C111.813 37.0663 112.313 37.1688 112.313 37.3737C112.313 37.4762 112.313 37.6812 112.213 37.7837C112.013 37.8862 111.813 37.8861 111.613 37.6812Z" fill="#ECB942"/>
<path d="M205.313 5.82225C204.913 6.02694 204.613 6.02694 204.213 5.82225C204.613 5.61756 205.013 5.61756 205.313 5.82225Z" fill="#ECB942"/>
<path d="M138.713 1.62314C137.913 1.52078 138.013 1.52078 138.013 1.52078C138.813 1.52078 138.713 1.52078 138.713 1.62314Z" fill="#ECB942"/>
<path d="M102.013 32.9687C102.313 33.0711 102.213 33.3781 102.013 33.2758C101.813 33.2758 101.713 33.1734 101.813 32.9687C101.813 33.0711 101.913 33.0711 102.013 32.9687Z" fill="#ECB942"/>
<path d="M230.413 24.4666C230.513 24.2616 229.713 24.5691 229.213 23.8517C228.913 24.1591 230.013 23.7492 230.413 24.4666Z" fill="#ECB942"/>
<path d="M195.913 7.9733C195.713 7.9733 195.613 7.56396 195.913 7.6663C196.013 7.6663 196.113 7.76863 196.213 7.87096C196.213 7.87096 196.013 7.9733 195.913 7.9733Z" fill="#ECB942"/>
<path d="M18.9128 6.74426C18.6128 6.94883 18.8128 7.05112 18.4128 6.74426C18.8128 6.64197 18.7128 6.64197 18.9128 6.74426Z" fill="#ECB942"/>
<path d="M206.613 6.02728C207.313 6.33432 206.213 6.53902 206.413 6.12963C206.513 6.12963 206.613 6.12963 206.613 6.02728Z" fill="#ECB942"/>
<path d="M104.013 4.49069C104.213 4.59327 104.413 4.69585 104.313 4.79843C104.013 5.31132 103.413 4.79843 103.613 4.59327C103.713 4.59327 103.913 4.49069 104.013 4.49069Z" fill="#ECB942"/>
<path d="M86.2128 35.0177C86.2128 35.3251 86.0128 35.4276 85.8128 34.9152C85.8128 34.9152 85.9128 34.8127 85.9128 34.7102C86.0128 34.9152 86.1128 35.0177 86.2128 35.0177Z" fill="#ECB942"/>
<path d="M105.413 4.79788L105.313 4.69551C105.413 4.69551 105.413 4.59314 105.513 4.59314C105.613 4.69551 105.613 4.79788 105.413 4.79788Z" fill="#ECB942"/>
<path d="M4.7128 13.6076C4.81279 13.6076 4.81279 13.5053 4.91279 13.5053C5.21278 13.6076 5.01279 13.9145 4.81279 13.7099C4.7128 13.7099 4.7128 13.7099 4.7128 13.6076Z" fill="#ECB942"/>
<path d="M232.713 42.0859C232.913 42.0859 232.913 41.9831 232.913 42.1887L232.713 42.0859Z" fill="#ECB942"/>
<path d="M234.113 42.1882C234.013 42.1882 234.013 42.2906 233.913 42.1882C233.813 42.0858 233.813 42.0858 234.013 42.0858C234.113 42.0858 234.113 42.0858 234.113 42.1882Z" fill="#ECB942"/>
<path d="M114.613 31.3297C114.613 31.4321 114.613 31.4321 114.413 31.4321L114.613 31.3297Z" fill="#ECB942"/>
<path d="M44.0128 29.998C44.0128 29.998 44.0128 30.1003 44.1128 30.1003C44.0128 30.1003 44.0128 30.2025 43.9128 30.2025C43.7128 30.1002 43.8128 29.998 44.0128 29.998Z" fill="#ECB942"/>
<path d="M70.0128 33.7882C69.8128 33.7882 69.9128 33.7882 69.9128 33.6858L70.0128 33.7882Z" fill="#ECB942"/>
<path d="M62.1128 36.4511C61.9128 36.3494 61.9128 36.3494 62.1128 36.4511V36.4511Z" fill="#ECB942"/>
<path d="M85.5128 29.9982V30.1008C85.3128 30.2035 85.3128 30.1008 85.2128 29.9982C85.4128 29.8955 85.3128 29.8955 85.5128 29.9982Z" fill="#ECB942"/>
<path d="M70.8128 38.1933C70.6128 38.0906 70.6128 38.0906 70.8128 38.1933V38.1933Z" fill="#ECB942"/>
<path d="M101.413 28.1537C101.213 28.1537 101.113 28.1537 101.213 27.9492H101.313C101.413 28.1537 101.313 28.256 101.413 28.1537Z" fill="#ECB942"/>
<path d="M30.1128 34.198C30.1128 34.4036 30.2128 34.3008 30.0128 34.3008L30.1128 34.198Z" fill="#ECB942"/>
<path d="M15.5128 35.0175C15.6128 35.1204 15.6128 35.2232 15.5128 35.0175V35.0175Z" fill="#ECB942"/>
<path d="M14.3128 34.9151C14.2128 35.1199 14.2128 35.1199 14.3128 34.9151V34.9151Z" fill="#ECB942"/>
<path d="M215.913 31.3296C215.913 31.2272 216.013 31.1248 216.013 31.1248C216.113 31.1248 216.113 31.2272 215.913 31.3296Z" fill="#ECB942"/>
<path d="M234.913 20.2657C235.013 20.164 235.013 20.164 234.913 20.2657V20.2657Z" fill="#ECB942"/>
<path d="M178.813 7.56387C178.713 7.76918 178.913 7.56387 178.813 7.56387V7.56387Z" fill="#ECB942"/>
<path d="M176.513 7.87106C176.513 7.66632 176.413 7.66632 176.613 7.76869L176.513 7.87106Z" fill="#ECB942"/>
<path d="M143.213 40.447C143.313 40.3445 143.313 40.1396 143.413 40.0371C143.713 39.7296 143.913 40.5495 143.513 40.5495C143.413 40.652 143.313 40.5495 143.213 40.447Z" fill="#ECB942"/>
<path d="M78.3128 31.2273C80.5128 30.8175 80.4128 31.4322 81.3128 31.3297C82.5128 31.1248 84.6128 31.8419 85.1128 31.7395C85.7128 31.5346 86.3128 32.0468 86.9128 31.8419C87.5128 31.637 88.6128 32.2517 89.5128 32.3541C90.1128 32.3541 90.7128 32.6614 91.3128 32.8663C91.4128 32.9688 91.5128 33.1736 91.6128 33.481C89.8128 34.8127 87.7128 33.1736 84.7128 33.5834C80.1128 34.198 65.8128 33.0712 63.8128 32.559C63.8128 32.3541 63.8128 32.1492 63.9128 31.9444C65.0128 31.637 68.7128 31.5346 71.7128 32.0468C74.9128 32.6614 75.8128 32.559 76.9128 31.8419C76.8128 31.637 77.0128 32.2517 77.4128 32.3541C79.1128 32.4566 78.2128 32.1492 78.8128 32.559C78.8128 32.559 78.9128 32.559 78.9128 32.4566C78.5128 32.1492 78.6128 32.3541 78.3128 31.2273Z" fill="#ECB942"/>
<path d="M105.613 34.1985C106.113 31.9439 106.613 33.5836 111.313 33.8911C109.213 34.4035 106.913 34.506 105.613 34.1985Z" fill="#ECB942"/>
<path d="M123.713 32.9694C124.113 32.6619 124.613 32.7644 125.113 32.7644C129.113 32.9694 144.513 31.7395 153.513 31.6371C153.913 31.6371 154.313 31.6371 154.713 31.9445C154.613 32.047 154.613 32.047 154.513 32.1495C147.413 33.5843 146.913 32.252 145.113 33.0719C122.913 33.8917 124.113 33.8917 123.713 32.9694Z" fill="#ECB942"/>
</svg>
