<svg width="82" height="66" viewBox="0 0 82 66" fill="none" xmlns="http://www.w3.org/2000/svg">
<path d="M13.2574 0.558838C13.2552 0.558838 13.2527 0.558838 13.2506 0.558838C12.4845 0.558838 11.7639 0.857475 11.2198 1.4002C10.6697 1.94893 10.3667 2.67957 10.3667 3.45739V46.9207C10.3667 48.5145 11.6685 49.8144 13.2688 49.8185C20.0156 49.8346 31.3191 51.2407 39.1169 59.401V13.9154C39.1169 13.3752 38.9789 12.8676 38.7185 12.4476C32.3184 2.14066 20.0194 0.574656 13.2574 0.558838Z" fill="#97BC59"/>
<path d="M72.3671 46.9207V3.45712C72.3671 2.6793 72.0641 1.94866 71.514 1.39993C70.9699 0.8572 70.2488 0.558563 69.4836 0.558563C69.4811 0.558563 69.4787 0.558563 69.4765 0.558563C62.7147 0.574654 50.4158 2.14066 44.0154 12.4476C43.7549 12.8676 43.6172 13.3752 43.6172 13.9154V59.4008C51.4151 51.2405 62.7185 49.8343 69.4653 49.8182C71.0654 49.8141 72.3671 48.5143 72.3671 46.9207Z" fill="#97BC59"/>
<path d="M78.9688 10.5822H76.8671V46.9207C76.8671 50.9901 73.5516 54.3084 69.4759 54.3185C63.7533 54.3321 54.3174 55.4511 47.6348 61.776C59.1924 58.9461 71.3763 60.7857 78.32 62.3681C79.187 62.5655 80.0829 62.3615 80.7775 61.8079C81.4697 61.2556 81.8668 60.43 81.8668 59.544V13.4802C81.8671 11.8822 80.5667 10.5822 78.9688 10.5822Z" fill="#97BC59"/>
<path d="M5.86644 46.9207V10.5822H3.7648C2.16716 10.5822 0.866791 11.8822 0.866791 13.4802V59.5431C0.866791 60.4295 1.26388 61.2548 1.95607 61.8071C2.65016 62.3604 3.54525 62.5652 4.41362 62.3672C11.3573 60.7846 23.5414 58.9453 35.0985 61.7751C28.4162 55.4506 18.9803 54.3318 13.2576 54.3182C9.18227 54.3084 5.86644 50.9901 5.86644 46.9207Z" fill="#97BC59"/>
<path d="M26.1976 15V13.84L26.1676 13.65V11.71C26.1676 11.2633 26.0409 10.92 25.7876 10.68C25.5409 10.44 25.1709 10.32 24.6776 10.32C24.3376 10.32 24.0142 10.3767 23.7076 10.49C23.4009 10.6033 23.1409 10.7533 22.9276 10.94L22.6076 10.41C22.8742 10.1833 23.1942 10.01 23.5676 9.89C23.9409 9.76333 24.3342 9.7 24.7476 9.7C25.4276 9.7 25.9509 9.87 26.3176 10.21C26.6909 10.5433 26.8776 11.0533 26.8776 11.74V15H26.1976ZM24.3876 15.05C23.9942 15.05 23.6509 14.9867 23.3576 14.86C23.0709 14.7267 22.8509 14.5467 22.6976 14.32C22.5442 14.0867 22.4676 13.82 22.4676 13.52C22.4676 13.2467 22.5309 13 22.6576 12.78C22.7909 12.5533 23.0042 12.3733 23.2976 12.24C23.5976 12.1 23.9976 12.03 24.4976 12.03H26.3076V12.56H24.5176C24.0109 12.56 23.6576 12.65 23.4576 12.83C23.2642 13.01 23.1676 13.2333 23.1676 13.5C23.1676 13.8 23.2842 14.04 23.5176 14.22C23.7509 14.4 24.0776 14.49 24.4976 14.49C24.8976 14.49 25.2409 14.4 25.5276 14.22C25.8209 14.0333 26.0342 13.7667 26.1676 13.42L26.3276 13.91C26.1942 14.2567 25.9609 14.5333 25.6276 14.74C25.3009 14.9467 24.8876 15.05 24.3876 15.05ZM25.1781 30.05C24.7181 30.05 24.3048 29.9467 23.9381 29.74C23.5715 29.5267 23.2815 29.22 23.0681 28.82C22.8548 28.42 22.7481 27.9367 22.7481 27.37C22.7481 26.7967 22.8548 26.3133 23.0681 25.92C23.2881 25.52 23.5815 25.2167 23.9481 25.01C24.3148 24.8033 24.7248 24.7 25.1781 24.7C25.6781 24.7 26.1248 24.8133 26.5181 25.04C26.9181 25.26 27.2315 25.57 27.4581 25.97C27.6848 26.37 27.7981 26.8367 27.7981 27.37C27.7981 27.8967 27.6848 28.3633 27.4581 28.77C27.2315 29.17 26.9181 29.4833 26.5181 29.71C26.1248 29.9367 25.6781 30.05 25.1781 30.05ZM22.4681 30V22.58H23.1781V26.3L23.0781 27.36L23.1481 28.42V30H22.4681ZM25.1281 29.42C25.5015 29.42 25.8348 29.3367 26.1281 29.17C26.4215 28.9967 26.6548 28.7567 26.8281 28.45C27.0015 28.1367 27.0881 27.7767 27.0881 27.37C27.0881 26.9567 27.0015 26.5967 26.8281 26.29C26.6548 25.9833 26.4215 25.7467 26.1281 25.58C25.8348 25.4067 25.5015 25.32 25.1281 25.32C24.7548 25.32 24.4181 25.4067 24.1181 25.58C23.8248 25.7467 23.5915 25.9833 23.4181 26.29C23.2515 26.5967 23.1681 26.9567 23.1681 27.37C23.1681 27.7767 23.2515 28.1367 23.4181 28.45C23.5915 28.7567 23.8248 28.9967 24.1181 29.17C24.4181 29.3367 24.7548 29.42 25.1281 29.42ZM25.2194 45.05C24.6994 45.05 24.2327 44.9367 23.8194 44.71C23.4127 44.4767 23.0927 44.16 22.8594 43.76C22.6261 43.3533 22.5094 42.89 22.5094 42.37C22.5094 41.8433 22.6261 41.38 22.8594 40.98C23.0927 40.58 23.4127 40.2667 23.8194 40.04C24.2327 39.8133 24.6994 39.7 25.2194 39.7C25.6661 39.7 26.0694 39.7867 26.4294 39.96C26.7894 40.1333 27.0727 40.3933 27.2794 40.74L26.7494 41.1C26.5694 40.8333 26.3461 40.6367 26.0794 40.51C25.8127 40.3833 25.5227 40.32 25.2094 40.32C24.8361 40.32 24.4994 40.4067 24.1994 40.58C23.8994 40.7467 23.6627 40.9833 23.4894 41.29C23.3161 41.5967 23.2294 41.9567 23.2294 42.37C23.2294 42.7833 23.3161 43.1433 23.4894 43.45C23.6627 43.7567 23.8994 43.9967 24.1994 44.17C24.4994 44.3367 24.8361 44.42 25.2094 44.42C25.5227 44.42 25.8127 44.3567 26.0794 44.23C26.3461 44.1033 26.5694 43.91 26.7494 43.65L27.2794 44.01C27.0727 44.35 26.7894 44.61 26.4294 44.79C26.0694 44.9633 25.6661 45.05 25.2194 45.05Z" fill="white"/>
</svg>
