<svg width="50" height="40" viewBox="0 0 50 40" fill="none" xmlns="http://www.w3.org/2000/svg">
<g clip-path="url(#clip0_749_109)">
<path d="M19.7617 3.29964C10.6105 3.43165 5.83598 8.84419 7.82537 15.9729C8.88638 19.8013 11.6715 22.3095 15.5177 22.7056C19.7617 23.2336 24.1384 23.1016 28.3824 23.2336C29.8413 23.2336 31.4328 22.8376 32.6264 23.4977C33.9527 24.1577 35.5442 25.4779 35.9421 26.798C36.34 28.5142 35.1463 30.2303 32.8917 30.3623C24.4036 30.3623 15.9156 30.4944 7.4275 30.3623C5.17285 30.3623 2.12246 26.402 1.72458 22.9696C0.928822 16.2369 0.530944 9.37225 0.000439638 2.63957C-0.132186 0.395349 0.928822 -0.264717 3.05084 0.131323C8.35588 1.18743 13.7935 2.11152 19.7617 3.29964Z" fill="#88AA4E"/>
<path d="M30.9019 36.9637C40.0531 37.4918 44.0318 29.1749 42.0424 23.6304C40.5836 19.4059 36.7374 16.8977 31.0345 16.7657C26.9231 16.6337 22.8117 16.6337 18.7003 16.7657C16.1804 16.7657 13.7931 16.2376 13.7931 13.2013C13.7931 10.165 16.0477 9.63696 18.7003 9.63696C25.5968 9.63696 32.3607 9.63696 39.2573 9.63696C44.4297 9.63696 47.6127 12.2772 48.1432 17.5578C48.8064 24.1584 49.2043 30.6271 49.7348 37.2277C49.8674 39.604 48.939 40.396 46.5517 40C41.5119 38.9439 36.2069 37.8878 30.9019 36.9637Z" fill="#88AA4E"/>
</g>
<defs>
<clipPath id="clip0_749_109">
<rect width="50" height="40" fill="white"/>
</clipPath>
</defs>
</svg>
