<svg width="44" height="44" viewBox="0 0 44 44" fill="none" xmlns="http://www.w3.org/2000/svg">
<g clip-path="url(#clip0_748_106)">
<path d="M22 44C34.144 44 44 34.144 44 22C44 9.856 34.144 0 22 0C9.856 0 0 9.856 0 22C0 34.144 9.856 44 22 44ZM29.8522 20.4288H33.0018V17.281H36.1515V20.4307H39.2737V23.5803H36.1515V26.73H33.0018V23.5803H29.8522V20.4288ZM15.7282 10.9982C18.5038 10.9982 21.0595 11.9753 23.0927 13.8637L20.1117 16.7567C18.9402 15.6108 17.336 15.0627 15.7282 15.0627C11.9222 15.0627 8.87883 18.2123 8.87883 21.9908C8.87883 25.7693 11.913 28.919 15.7282 28.919C18.6193 28.919 21.4848 27.225 21.9468 24.1908H15.7282V20.4123H26.0993C26.2148 21.0155 26.268 21.6187 26.268 22.2475C26.268 28.5285 22.0532 32.9982 15.7282 32.9982V33C9.625 33 4.72633 28.0757 4.72633 21.9982C4.72633 15.9207 9.625 10.9982 15.7282 10.9982Z" fill="#97BC59"/>
</g>
<defs>
<clipPath id="clip0_748_106">
<rect width="44" height="44" fill="white"/>
</clipPath>
</defs>
</svg>
