<svg width="405" height="59" viewBox="0 0 405 59" fill="none" xmlns="http://www.w3.org/2000/svg">
<rect y="43" width="405" height="16" rx="8" fill="#E5E5E5"/>
<rect y="43" width="156.145" height="16" rx="8" fill="#97BC59"/>
<path d="M141.153 26H143.312V22.136H145.713V20.24H143.312V8.816H140.697L132.273 20.48V22.136H141.153V26ZM134.793 20.24L141.249 11.096V20.24H134.793ZM147.894 17.144C147.894 22.184 149.142 26 153.942 26C158.718 26 159.966 22.184 159.966 17.144C159.966 12.176 158.718 8.384 153.942 8.384C149.142 8.384 147.894 12.176 147.894 17.144ZM157.806 17.144C157.806 20.888 157.35 24.008 153.942 24.008C150.51 24.008 150.054 20.888 150.054 17.144C150.054 13.544 150.51 10.376 153.942 10.376C157.35 10.376 157.806 13.544 157.806 17.144ZM162.485 12.56C162.485 14.816 163.997 16.16 165.989 16.16C168.005 16.16 169.493 14.816 169.493 12.56C169.493 10.328 168.005 8.984 165.989 8.984C163.997 8.984 162.485 10.328 162.485 12.56ZM165.989 10.328C167.045 10.328 167.765 11.048 167.765 12.56C167.765 14.048 167.045 14.816 165.989 14.816C164.933 14.816 164.237 14.048 164.237 12.56C164.237 11.048 164.933 10.328 165.989 10.328ZM164.621 26H166.781L176.501 9.248H174.341L164.621 26ZM171.677 22.688C171.677 24.92 173.165 26.288 175.181 26.288C177.173 26.288 178.661 24.92 178.661 22.688C178.661 20.432 177.173 19.088 175.181 19.088C173.165 19.088 171.677 20.432 171.677 22.688ZM175.157 20.456C176.213 20.456 176.933 21.176 176.933 22.688C176.933 24.176 176.213 24.896 175.157 24.896C174.101 24.896 173.381 24.176 173.381 22.688C173.381 21.176 174.101 20.456 175.157 20.456Z" fill="black"/>
</svg>
