<svg width="405" height="53" viewBox="0 0 405 53" fill="none" xmlns="http://www.w3.org/2000/svg">
<rect y="37" width="405" height="16" rx="8" fill="#E5E5E5"/>
<rect y="37" width="131" height="16" rx="8" fill="#B0CEF1"/>
<path d="M112.233 13.016H114.369C114.585 11.336 115.809 10.184 117.849 10.184C119.937 10.184 121.041 11.336 121.041 12.992C121.041 15.008 119.481 15.896 116.577 15.92H116.001V17.744H116.553C119.673 17.744 121.377 18.68 121.377 21.128C121.377 22.904 120.273 24.272 117.945 24.272C115.641 24.272 114.297 22.856 114.081 21.008H111.969C112.233 24.368 114.681 26.12 117.969 26.12C121.593 26.12 123.465 24.008 123.465 21.32C123.465 18.824 122.097 17.336 120.081 16.856V16.736C121.905 16.328 123.153 14.768 123.153 12.776C123.153 10.28 121.305 8.312 117.921 8.312C114.705 8.312 112.449 10.04 112.233 13.016ZM126.414 17.144C126.414 22.184 127.662 26 132.462 26C137.238 26 138.486 22.184 138.486 17.144C138.486 12.176 137.238 8.384 132.462 8.384C127.662 8.384 126.414 12.176 126.414 17.144ZM136.326 17.144C136.326 20.888 135.87 24.008 132.462 24.008C129.03 24.008 128.574 20.888 128.574 17.144C128.574 13.544 129.03 10.376 132.462 10.376C135.87 10.376 136.326 13.544 136.326 17.144ZM141.004 12.56C141.004 14.816 142.516 16.16 144.508 16.16C146.524 16.16 148.012 14.816 148.012 12.56C148.012 10.328 146.524 8.984 144.508 8.984C142.516 8.984 141.004 10.328 141.004 12.56ZM144.508 10.328C145.564 10.328 146.284 11.048 146.284 12.56C146.284 14.048 145.564 14.816 144.508 14.816C143.452 14.816 142.756 14.048 142.756 12.56C142.756 11.048 143.452 10.328 144.508 10.328ZM143.14 26H145.3L155.02 9.248H152.86L143.14 26ZM150.196 22.688C150.196 24.92 151.684 26.288 153.7 26.288C155.692 26.288 157.18 24.92 157.18 22.688C157.18 20.432 155.692 19.088 153.7 19.088C151.684 19.088 150.196 20.432 150.196 22.688ZM153.676 20.456C154.732 20.456 155.452 21.176 155.452 22.688C155.452 24.176 154.732 24.896 153.676 24.896C152.62 24.896 151.9 24.176 151.9 22.688C151.9 21.176 152.62 20.456 153.676 20.456Z" fill="black"/>
</svg>
