<svg width="405" height="56" viewBox="0 0 405 56" fill="none" xmlns="http://www.w3.org/2000/svg">
<rect y="40" width="405" height="16" rx="8" fill="#E5E5E5"/>
<rect y="40" width="211" height="16" rx="8" fill="#ECB942"/>
<path d="M185.436 8.624V18.416H187.5C188.076 17.048 189.348 16.136 191.1 16.136C193.62 16.136 194.892 17.576 194.892 20.048C194.892 22.424 193.716 24.2 191.076 24.2C189.036 24.2 187.62 23.12 187.212 21.296H185.076C185.508 24.104 187.596 26.048 191.052 26.048C195.108 26.048 196.98 23.36 196.98 20C196.98 17.312 195.636 14.264 191.412 14.264C189.708 14.264 188.172 15.032 187.452 16.016V10.544H195.876V8.624H185.436ZM199.883 17.144C199.883 22.184 201.131 26 205.931 26C210.707 26 211.955 22.184 211.955 17.144C211.955 12.176 210.707 8.384 205.931 8.384C201.131 8.384 199.883 12.176 199.883 17.144ZM209.795 17.144C209.795 20.888 209.339 24.008 205.931 24.008C202.499 24.008 202.043 20.888 202.043 17.144C202.043 13.544 202.499 10.376 205.931 10.376C209.339 10.376 209.795 13.544 209.795 17.144ZM214.473 12.56C214.473 14.816 215.985 16.16 217.977 16.16C219.993 16.16 221.481 14.816 221.481 12.56C221.481 10.328 219.993 8.984 217.977 8.984C215.985 8.984 214.473 10.328 214.473 12.56ZM217.977 10.328C219.033 10.328 219.753 11.048 219.753 12.56C219.753 14.048 219.033 14.816 217.977 14.816C216.921 14.816 216.225 14.048 216.225 12.56C216.225 11.048 216.921 10.328 217.977 10.328ZM216.609 26H218.769L228.489 9.248H226.329L216.609 26ZM223.665 22.688C223.665 24.92 225.153 26.288 227.169 26.288C229.161 26.288 230.649 24.92 230.649 22.688C230.649 20.432 229.161 19.088 227.169 19.088C225.153 19.088 223.665 20.432 223.665 22.688ZM227.145 20.456C228.201 20.456 228.921 21.176 228.921 22.688C228.921 24.176 228.201 24.896 227.145 24.896C226.089 24.896 225.369 24.176 225.369 22.688C225.369 21.176 226.089 20.456 227.145 20.456Z" fill="black"/>
</svg>
