<svg width="231" height="40" viewBox="0 0 231 40" fill="none" xmlns="http://www.w3.org/2000/svg">
<g clip-path="url(#clip0_22_230)">
<path d="M19.7617 3.29973C10.6105 3.43174 5.836 8.84429 7.82539 15.973C8.8864 19.8014 11.6715 22.3096 15.5177 22.7057C19.7617 23.2337 24.1384 23.1017 28.3824 23.2337C29.8413 23.2337 31.4328 22.8377 32.6264 23.4978C33.9527 24.1578 35.5442 25.4779 35.9421 26.7981C36.34 28.5143 35.1463 30.2304 32.8917 30.3624C24.4036 30.3624 15.9156 30.4945 7.42751 30.3624C5.17287 30.3624 2.12247 26.402 1.72459 22.9697C0.928837 16.237 0.530959 9.37234 0.000454897 2.63967C-0.132171 0.395441 0.928837 -0.264625 3.05085 0.131414C8.35589 1.18752 13.7936 2.11161 19.7617 3.29973Z" fill="#88AA4E"/>
<path d="M30.9018 36.9637C40.053 37.4918 44.0318 29.1749 42.0424 23.6304C40.5835 19.4059 36.7374 16.8977 31.0345 16.7657C26.9231 16.6337 22.8117 16.6337 18.7003 16.7657C16.1804 16.7657 13.7931 16.2376 13.7931 13.2013C13.7931 10.165 16.0477 9.63696 18.7003 9.63696C25.5968 9.63696 32.3607 9.63696 39.2573 9.63696C44.4297 9.63696 47.6127 12.2772 48.1432 17.5578C48.8064 24.1584 49.2042 30.6271 49.7347 37.2277C49.8674 39.604 48.939 40.396 46.5517 40C41.5119 38.9439 36.2069 37.8878 30.9018 36.9637Z" fill="#88AA4E"/>
</g>
<path d="M66.7599 29.216C65.6719 29.216 64.6959 29.024 63.8319 28.64C62.9679 28.24 62.2799 27.704 61.7679 27.032C61.2719 26.36 60.9999 25.616 60.9519 24.8H64.3359C64.3999 25.312 64.6479 25.736 65.0799 26.072C65.5279 26.408 66.0799 26.576 66.7359 26.576C67.3759 26.576 67.8719 26.448 68.2239 26.192C68.5919 25.936 68.7759 25.608 68.7759 25.208C68.7759 24.776 68.5519 24.456 68.1039 24.248C67.6719 24.024 66.9759 23.784 66.0159 23.528C65.0239 23.288 64.2079 23.04 63.5679 22.784C62.9439 22.528 62.3999 22.136 61.9359 21.608C61.4879 21.08 61.2639 20.368 61.2639 19.472C61.2639 18.736 61.4719 18.064 61.8879 17.456C62.3199 16.848 62.9279 16.368 63.7119 16.016C64.5119 15.664 65.4479 15.488 66.5199 15.488C68.1039 15.488 69.3679 15.888 70.3119 16.688C71.2559 17.472 71.7759 18.536 71.8719 19.88H68.6559C68.6079 19.352 68.3839 18.936 67.9839 18.632C67.5999 18.312 67.0799 18.152 66.4239 18.152C65.8159 18.152 65.3439 18.264 65.0079 18.488C64.6879 18.712 64.5279 19.024 64.5279 19.424C64.5279 19.872 64.7519 20.216 65.1999 20.456C65.6479 20.68 66.3439 20.912 67.2879 21.152C68.2479 21.392 69.0399 21.64 69.6639 21.896C70.2879 22.152 70.8239 22.552 71.2719 23.096C71.7359 23.624 71.9759 24.328 71.9919 25.208C71.9919 25.976 71.7759 26.664 71.3439 27.272C70.9279 27.88 70.3199 28.36 69.5199 28.712C68.7359 29.048 67.8159 29.216 66.7599 29.216ZM88.0701 22.064C88.0701 22.544 88.0381 22.976 87.9741 23.36H78.2541C78.3341 24.32 78.6701 25.072 79.2621 25.616C79.8541 26.16 80.5821 26.432 81.4461 26.432C82.6941 26.432 83.5821 25.896 84.1101 24.824H87.7341C87.3501 26.104 86.6141 27.16 85.5261 27.992C84.4381 28.808 83.1021 29.216 81.5181 29.216C80.2381 29.216 79.0861 28.936 78.0621 28.376C77.0541 27.8 76.2621 26.992 75.6861 25.952C75.1261 24.912 74.8461 23.712 74.8461 22.352C74.8461 20.976 75.1261 19.768 75.6861 18.728C76.2461 17.688 77.0301 16.888 78.0381 16.328C79.0461 15.768 80.2061 15.488 81.5181 15.488C82.7821 15.488 83.9101 15.76 84.9021 16.304C85.9101 16.848 86.6861 17.624 87.2301 18.632C87.7901 19.624 88.0701 20.768 88.0701 22.064ZM84.5901 21.104C84.5741 20.24 84.2621 19.552 83.6541 19.04C83.0461 18.512 82.3021 18.248 81.4221 18.248C80.5901 18.248 79.8861 18.504 79.3101 19.016C78.7501 19.512 78.4061 20.208 78.2781 21.104H84.5901ZM90.6186 22.352C90.6186 20.976 90.8986 19.776 91.4586 18.752C92.0186 17.712 92.7946 16.912 93.7866 16.352C94.7786 15.776 95.9146 15.488 97.1946 15.488C98.8426 15.488 100.203 15.904 101.275 16.736C102.363 17.552 103.091 18.704 103.459 20.192H99.8346C99.6426 19.616 99.3146 19.168 98.8506 18.848C98.4026 18.512 97.8426 18.344 97.1706 18.344C96.2106 18.344 95.4506 18.696 94.8906 19.4C94.3306 20.088 94.0506 21.072 94.0506 22.352C94.0506 23.616 94.3306 24.6 94.8906 25.304C95.4506 25.992 96.2106 26.336 97.1706 26.336C98.5306 26.336 99.4186 25.728 99.8346 24.512H103.459C103.091 25.952 102.363 27.096 101.275 27.944C100.187 28.792 98.8266 29.216 97.1946 29.216C95.9146 29.216 94.7786 28.936 93.7866 28.376C92.7946 27.8 92.0186 27 91.4586 25.976C90.8986 24.936 90.6186 23.728 90.6186 22.352ZM112.784 29.216C111.504 29.216 110.352 28.936 109.328 28.376C108.304 27.8 107.496 26.992 106.904 25.952C106.328 24.912 106.04 23.712 106.04 22.352C106.04 20.992 106.336 19.792 106.928 18.752C107.536 17.712 108.36 16.912 109.4 16.352C110.44 15.776 111.6 15.488 112.88 15.488C114.16 15.488 115.32 15.776 116.36 16.352C117.4 16.912 118.216 17.712 118.808 18.752C119.416 19.792 119.72 20.992 119.72 22.352C119.72 23.712 119.408 24.912 118.784 25.952C118.176 26.992 117.344 27.8 116.288 28.376C115.248 28.936 114.08 29.216 112.784 29.216ZM112.784 26.288C113.392 26.288 113.96 26.144 114.488 25.856C115.032 25.552 115.464 25.104 115.784 24.512C116.104 23.92 116.264 23.2 116.264 22.352C116.264 21.088 115.928 20.12 115.256 19.448C114.6 18.76 113.792 18.416 112.832 18.416C111.872 18.416 111.064 18.76 110.408 19.448C109.768 20.12 109.448 21.088 109.448 22.352C109.448 23.616 109.76 24.592 110.384 25.28C111.024 25.952 111.824 26.288 112.784 26.288ZM130.513 15.512C132.097 15.512 133.377 16.016 134.353 17.024C135.329 18.016 135.817 19.408 135.817 21.2V29H132.457V21.656C132.457 20.6 132.193 19.792 131.665 19.232C131.137 18.656 130.417 18.368 129.505 18.368C128.577 18.368 127.841 18.656 127.297 19.232C126.769 19.792 126.505 20.6 126.505 21.656V29H123.145V15.704H126.505V17.36C126.953 16.784 127.521 16.336 128.209 16.016C128.913 15.68 129.681 15.512 130.513 15.512ZM139.108 22.304C139.108 20.96 139.372 19.768 139.9 18.728C140.444 17.688 141.18 16.888 142.108 16.328C143.036 15.768 144.068 15.488 145.204 15.488C146.068 15.488 146.892 15.68 147.676 16.064C148.46 16.432 149.084 16.928 149.548 17.552V11.24H152.956V29H149.548V27.032C149.132 27.688 148.548 28.216 147.796 28.616C147.044 29.016 146.172 29.216 145.18 29.216C144.06 29.216 143.036 28.928 142.108 28.352C141.18 27.776 140.444 26.968 139.9 25.928C139.372 24.872 139.108 23.664 139.108 22.304ZM149.572 22.352C149.572 21.536 149.412 20.84 149.092 20.264C148.772 19.672 148.34 19.224 147.796 18.92C147.252 18.6 146.668 18.44 146.044 18.44C145.42 18.44 144.844 18.592 144.316 18.896C143.788 19.2 143.356 19.648 143.02 20.24C142.7 20.816 142.54 21.504 142.54 22.304C142.54 23.104 142.7 23.808 143.02 24.416C143.356 25.008 143.788 25.464 144.316 25.784C144.86 26.104 145.436 26.264 146.044 26.264C146.668 26.264 147.252 26.112 147.796 25.808C148.34 25.488 148.772 25.04 149.092 24.464C149.412 23.872 149.572 23.168 149.572 22.352ZM158.59 19.4C158.99 18.344 159.67 17.48 160.63 16.808C161.59 16.136 162.75 15.8 164.11 15.8C165.326 15.8 166.406 16.072 167.35 16.616C168.31 17.16 169.054 17.936 169.582 18.944C170.126 19.952 170.398 21.128 170.398 22.472C170.398 23.816 170.126 25 169.582 26.024C169.054 27.032 168.31 27.816 167.35 28.376C166.406 28.92 165.326 29.192 164.11 29.192C162.75 29.192 161.582 28.856 160.606 28.184C159.646 27.512 158.974 26.648 158.59 25.592V29H157.51V11.24H158.59V19.4ZM169.294 22.472C169.294 21.288 169.07 20.264 168.622 19.4C168.174 18.536 167.542 17.88 166.726 17.432C165.926 16.968 164.998 16.736 163.942 16.736C162.934 16.736 162.022 16.976 161.206 17.456C160.39 17.92 159.75 18.592 159.286 19.472C158.822 20.336 158.59 21.336 158.59 22.472C158.59 23.624 158.822 24.64 159.286 25.52C159.75 26.384 160.39 27.056 161.206 27.536C162.022 28 162.934 28.232 163.942 28.232C164.998 28.232 165.926 28 166.726 27.536C167.542 27.072 168.174 26.408 168.622 25.544C169.07 24.68 169.294 23.656 169.294 22.472ZM180.354 29.192C179.138 29.192 178.042 28.92 177.066 28.376C176.09 27.832 175.322 27.056 174.762 26.048C174.218 25.024 173.946 23.832 173.946 22.472C173.946 21.128 174.226 19.952 174.786 18.944C175.346 17.92 176.114 17.144 177.09 16.616C178.082 16.072 179.186 15.8 180.402 15.8C181.618 15.8 182.714 16.072 183.69 16.616C184.666 17.144 185.426 17.912 185.97 18.92C186.53 19.928 186.81 21.112 186.81 22.472C186.81 23.832 186.53 25.024 185.97 26.048C185.41 27.056 184.634 27.832 183.642 28.376C182.666 28.92 181.57 29.192 180.354 29.192ZM180.354 28.232C181.298 28.232 182.178 28.024 182.994 27.608C183.826 27.176 184.49 26.528 184.986 25.664C185.482 24.8 185.73 23.736 185.73 22.472C185.73 21.224 185.482 20.168 184.986 19.304C184.49 18.44 183.834 17.8 183.018 17.384C182.202 16.952 181.322 16.736 180.378 16.736C179.434 16.736 178.554 16.952 177.738 17.384C176.938 17.8 176.29 18.44 175.794 19.304C175.298 20.168 175.05 21.224 175.05 22.472C175.05 23.736 175.29 24.8 175.77 25.664C176.266 26.528 176.914 27.176 177.714 27.608C178.53 28.024 179.41 28.232 180.354 28.232ZM196.783 29.192C195.567 29.192 194.471 28.92 193.495 28.376C192.519 27.832 191.751 27.056 191.191 26.048C190.647 25.024 190.375 23.832 190.375 22.472C190.375 21.128 190.655 19.952 191.215 18.944C191.775 17.92 192.543 17.144 193.519 16.616C194.511 16.072 195.615 15.8 196.831 15.8C198.047 15.8 199.143 16.072 200.119 16.616C201.095 17.144 201.855 17.912 202.399 18.92C202.959 19.928 203.239 21.112 203.239 22.472C203.239 23.832 202.959 25.024 202.399 26.048C201.839 27.056 201.063 27.832 200.071 28.376C199.095 28.92 197.999 29.192 196.783 29.192ZM196.783 28.232C197.727 28.232 198.607 28.024 199.423 27.608C200.255 27.176 200.919 26.528 201.415 25.664C201.911 24.8 202.159 23.736 202.159 22.472C202.159 21.224 201.911 20.168 201.415 19.304C200.919 18.44 200.263 17.8 199.447 17.384C198.631 16.952 197.751 16.736 196.807 16.736C195.863 16.736 194.983 16.952 194.167 17.384C193.367 17.8 192.719 18.44 192.223 19.304C191.727 20.168 191.479 21.224 191.479 22.472C191.479 23.736 191.719 24.8 192.199 25.664C192.695 26.528 193.343 27.176 194.143 27.608C194.959 28.024 195.839 28.232 196.783 28.232ZM214.244 29L208.556 23.024V29H207.476V11.24H208.556V21.872L214.148 15.968H215.66L209.348 22.448L215.732 29H214.244Z" fill="black"/>
<defs>
<clipPath id="clip0_22_230">
<rect width="50" height="40" fill="white"/>
</clipPath>
</defs>
</svg>
