<svg width="44" height="44" viewBox="0 0 44 44" fill="none" xmlns="http://www.w3.org/2000/svg">
<path d="M37.5536 6.44082C28.9608 -2.14941 15.0311 -2.14735 6.44092 6.44554C-2.1493 15.0384 -2.14724 28.968 6.44565 37.5583C15.0385 46.1485 28.9681 46.1464 37.5584 37.5535C41.6839 33.4267 44.0009 27.8301 43.9996 21.9948C43.9984 16.1605 41.6798 10.5656 37.5536 6.44082ZM33.3179 30.6453C33.3169 30.6462 33.316 30.6473 33.3149 30.6482V30.6409L32.2002 31.7482C30.7586 33.208 28.6591 33.8086 26.6636 33.3322C24.653 32.7941 22.7418 31.9374 21.0023 30.7949C19.3861 29.762 17.8884 28.5546 16.5363 27.1942C15.2921 25.9592 14.1744 24.6031 13.1996 23.1462C12.1332 21.5785 11.2893 19.8708 10.6916 18.0715C10.0064 15.9578 10.5742 13.6384 12.1583 12.0802L13.4636 10.7749C13.8265 10.4104 14.4162 10.4091 14.7806 10.772C14.7816 10.7729 14.7826 10.7739 14.7836 10.7749L18.9049 14.8962C19.2694 15.2591 19.2707 15.8488 18.9078 16.2133C18.9068 16.2142 18.9059 16.2152 18.9049 16.2162L16.4849 18.6362C15.7905 19.323 15.7032 20.4144 16.2796 21.2029C17.1548 22.4041 18.1234 23.5345 19.1763 24.5836C20.3501 25.7625 21.6262 26.8349 22.9896 27.7883C23.7773 28.3378 24.8454 28.2451 25.5269 27.5683L27.8662 25.1923C28.2291 24.8277 28.8188 24.8265 29.1832 25.1894C29.1842 25.1903 29.1851 25.1913 29.1862 25.1923L33.3149 29.3283C33.6795 29.6911 33.6808 30.2807 33.3179 30.6453Z" fill="#97BC59"/>
</svg>
